<?xml version="1.0" encoding="UTF-8" standalone="no"?><svg xmlns="http://www.w3.org/2000/svg" xmlns:xlink="http://www.w3.org/1999/xlink" contentStyleType="text/css" height="467px" preserveAspectRatio="none" style="width:400px;height:467px;background:#FFFFFF;" version="1.1" viewBox="0 0 400 467" width="400px" zoomAndPan="magnify"><defs/><g><ellipse cx="103" cy="16" fill="#222222" rx="10" ry="10" style="stroke:none;stroke-width:1.0;"/><rect fill="#F1F1F1" height="35.0938" rx="12.5" ry="12.5" style="stroke:#181818;stroke-width:0.5;" width="192" x="7" y="81"/><text fill="#000000" font-family="sans-serif" font-size="12" lengthAdjust="spacing" textLength="172" x="17" y="103.457">Aggregate Data Transformation</text><rect fill="#F1F1F1" height="35.0938" rx="12.5" ry="12.5" style="stroke:#181818;stroke-width:0.5;" width="175" x="219.5" y="81"/><text fill="#000000" font-family="sans-serif" font-size="12" lengthAdjust="spacing" textLength="155" x="229.5" y="103.457">Child Data Transformation 1</text><rect fill="#F1F1F1" height="35.0938" rx="12.5" ry="12.5" style="stroke:#181818;stroke-width:0.5;" width="175" x="219.5" y="171"/><text fill="#000000" font-family="sans-serif" font-size="12" lengthAdjust="spacing" textLength="155" x="229.5" y="193.457">Child Data Transformation 2</text><rect fill="#F1F1F1" height="35.0938" rx="12.5" ry="12.5" style="stroke:#181818;stroke-width:0.5;" width="175" x="200.5" y="261"/><text fill="#000000" font-family="sans-serif" font-size="12" lengthAdjust="spacing" textLength="155" x="210.5" y="283.457">Child Data Transformation 3</text><rect fill="#F1F1F1" height="35.0938" rx="12.5" ry="12.5" style="stroke:#181818;stroke-width:0.5;" width="120" x="33" y="171"/><text fill="#000000" font-family="sans-serif" font-size="12" lengthAdjust="spacing" textLength="100" x="43" y="193.457">Output Generation</text><rect fill="#F1F1F1" height="35.0938" rx="12.5" ry="12.5" style="stroke:#181818;stroke-width:0.5;" width="143" x="19.5" y="261"/><text fill="#000000" font-family="sans-serif" font-size="12" lengthAdjust="spacing" textLength="123" x="29.5" y="283.457">Output Transformation</text><rect fill="#F1F1F1" height="35.0938" rx="12.5" ry="12.5" style="stroke:#181818;stroke-width:0.5;" width="122" x="30" y="351"/><text fill="#000000" font-family="sans-serif" font-size="12" lengthAdjust="spacing" textLength="102" x="40" y="373.457">Output Disposition</text><ellipse cx="91" cy="451" fill="none" rx="10" ry="10" style="stroke:#222222;stroke-width:1.0;"/><ellipse cx="91.5" cy="451.5" fill="#222222" rx="6" ry="6" style="stroke:none;stroke-width:1.0;"/><!--MD5=[579a86c82f56d5f520f47ea2cac90ab2]
link start to Aggregate Data Transformation--><g id="link_start_Aggregate Data Transformation"><path d="M103,26.23 C103,38.18 103,59.38 103,75.56 " fill="none" id="start-to-Aggregate Data Transformation" style="stroke:#181818;stroke-width:1.0;"/><polygon fill="#181818" points="103,80.84,107,71.84,103,75.84,99,71.84,103,80.84" style="stroke:#181818;stroke-width:1.0;"/><text fill="#000000" font-family="sans-serif" font-size="11" lengthAdjust="spacing" textLength="69" x="104" y="58.4189">Data Chunk(s)</text></g><!--MD5=[85877e3f50a9ce547fc9224ed4fcb5a5]
link Aggregate Data Transformation to Child Data Transformation 1--><g id="link_Aggregate Data Transformation_Child Data Transformation 1"><path d="M199.02,98.5 C204.08,98.5 209.15,98.5 214.21,98.5 " fill="none" id="Aggregate Data Transformation-to-Child Data Transformation 1" style="stroke:#181818;stroke-width:1.0;"/><polygon fill="#181818" points="219.27,98.5,210.27,94.5,214.27,98.5,210.27,102.5,219.27,98.5" style="stroke:#181818;stroke-width:1.0;"/></g><!--MD5=[4b28901bcc4184a8e3afec8ec3793312]
link Child Data Transformation 1 to Child Data Transformation 2--><g id="link_Child Data Transformation 1_Child Data Transformation 2"><path d="M307,116.05 C307,130.1 307,150.36 307,165.72 " fill="none" id="Child Data Transformation 1-to-Child Data Transformation 2" style="stroke:#181818;stroke-width:1.0;"/><polygon fill="#181818" points="307,170.72,311,161.72,307,165.72,303,161.72,307,170.72" style="stroke:#181818;stroke-width:1.0;"/></g><!--MD5=[35153344ae70e701a8b4b8900269da60]
link Child Data Transformation 2 to Child Data Transformation 3--><g id="link_Child Data Transformation 2_Child Data Transformation 3"><path d="M303.43,206.05 C300.39,220.1 296.02,240.36 292.7,255.72 " fill="none" id="Child Data Transformation 2-to-Child Data Transformation 3" style="stroke:#181818;stroke-width:1.0;"/><polygon fill="#181818" points="291.62,260.72,297.4106,252.7533,292.6637,255.8302,289.5869,251.0833,291.62,260.72" style="stroke:#181818;stroke-width:1.0;"/></g><!--MD5=[5a606ca112b05e1f3dfa3e2531b72153]
link Child Data Transformation 3 to Aggregate Data Transformation--><g id="link_Child Data Transformation 3_Aggregate Data Transformation"><path d="M265.54,260.83 C248.52,247.38 225.34,227.27 209,206 C187.69,178.26 197.67,160.81 173,136 C166.31,129.28 158.13,123.52 149.74,118.7 " fill="none" id="Child Data Transformation 3-to-Aggregate Data Transformation" style="stroke:#181818;stroke-width:1.0;"/><polygon fill="#181818" points="145.07,116.12,151.0145,123.9726,149.4468,118.5373,154.8821,116.9696,145.07,116.12" style="stroke:#181818;stroke-width:1.0;"/></g><!--MD5=[6bb1b64edf15061ee1cb32047c4b2607]
link Aggregate Data Transformation to Output Generation--><g id="link_Aggregate Data Transformation_Output Generation"><path d="M101.12,116.05 C99.52,130.1 97.22,150.36 95.48,165.72 " fill="none" id="Aggregate Data Transformation-to-Output Generation" style="stroke:#181818;stroke-width:1.0;"/><polygon fill="#181818" points="94.91,170.72,99.8875,162.2215,95.4669,165.7511,91.9372,161.3305,94.91,170.72" style="stroke:#181818;stroke-width:1.0;"/><text fill="#000000" font-family="sans-serif" font-size="11" lengthAdjust="spacing" textLength="69" x="100" y="148.4189">Data Chunk(s)</text></g><!--MD5=[dc47635884f6decca042944cde3614a6]
link Output Generation to Output Transformation--><g id="link_Output Generation_Output Transformation"><path d="M91.89,206.21 C91.53,212.42 91.18,219.53 91,226 C90.73,235.71 90.69,246.46 90.74,255.61 " fill="none" id="Output Generation-to-Output Transformation" style="stroke:#181818;stroke-width:1.0;"/><polygon fill="#181818" points="90.77,260.8,94.7185,251.7773,90.7414,255.8001,86.7186,251.823,90.77,260.8" style="stroke:#181818;stroke-width:1.0;"/><text fill="#000000" font-family="sans-serif" font-size="11" lengthAdjust="spacing" textLength="79" x="92" y="238.4189">Output Chunk(s)</text></g><!--MD5=[2e36d42590acfc58fad39e4eef7dcb5e]
link Output Transformation to Output Disposition--><g id="link_Output Transformation_Output Disposition"><path d="M91,296.05 C91,310.1 91,330.36 91,345.72 " fill="none" id="Output Transformation-to-Output Disposition" style="stroke:#181818;stroke-width:1.0;"/><polygon fill="#181818" points="91,350.72,95,341.72,91,345.72,87,341.72,91,350.72" style="stroke:#181818;stroke-width:1.0;"/><text fill="#000000" font-family="sans-serif" font-size="11" lengthAdjust="spacing" textLength="79" x="92" y="328.4189">Output Chunk(s)</text></g><!--MD5=[ab0b1a9c81d6626a89a29b9ad89938a3]
link Output Disposition to end--><g id="link_Output Disposition_end"><path d="M91,386.18 C91,400.82 91,421.87 91,435.74 " fill="none" id="Output Disposition-to-end" style="stroke:#181818;stroke-width:1.0;"/><polygon fill="#181818" points="91,440.85,95,431.85,91,435.85,87,431.85,91,440.85" style="stroke:#181818;stroke-width:1.0;"/><text fill="#000000" font-family="sans-serif" font-size="11" lengthAdjust="spacing" textLength="77" x="92" y="418.4189">Result Chunk(s)</text></g><!--MD5=[b52aa01b32b9dc8ecadd746e275607c2]
@startuml DataOverview

(*) - ->[Data Chunk(s)] "Aggregate Data Transformation"
-right-> "Child Data Transformation 1"
- -> "Child Data Transformation 2"
- -> "Child Data Transformation 3"
- -> "Aggregate Data Transformation"
- ->[Data Chunk(s)] "Output Generation"
- ->[Output Chunk(s)] "Output Transformation"
- ->[Output Chunk(s)] "Output Disposition"
- ->[Result Chunk(s)] (*)

@enduml

PlantUML version 1.2022.13(Sat Nov 19 08:22:17 EST 2022)
(GPL source distribution)
Java Runtime: Java(TM) SE Runtime Environment
JVM: Java HotSpot(TM) 64-Bit Server VM
Default Encoding: Cp1252
Language: en
Country: CA
--></g></svg>