<?xml version="1.0" encoding="UTF-8" standalone="no"?><svg xmlns="http://www.w3.org/2000/svg" xmlns:xlink="http://www.w3.org/1999/xlink" contentStyleType="text/css" height="482px" preserveAspectRatio="none" style="width:585px;height:482px;background:#FFFFFF;" version="1.1" viewBox="0 0 585 482" width="585px" zoomAndPan="magnify"><defs/><g><ellipse cx="273" cy="16" fill="#222222" rx="10" ry="10" style="stroke:none;stroke-width:1.0;"/><rect fill="#F1F1F1" height="35.0938" rx="12.5" ry="12.5" style="stroke:#181818;stroke-width:0.5;" width="133" x="206.5" y="81"/><text fill="#000000" font-family="sans-serif" font-size="12" lengthAdjust="spacing" textLength="113" x="216.5" y="103.457">Data Transformation</text><rect fill="#F1F1F1" height="35.0938" rx="12.5" ry="12.5" style="stroke:#181818;stroke-width:0.5;" width="120" x="213" y="171"/><text fill="#000000" font-family="sans-serif" font-size="12" lengthAdjust="spacing" textLength="100" x="223" y="193.457">Output Generation</text><rect fill="#F1F1F1" height="35.0938" rx="12.5" ry="12.5" style="stroke:#181818;stroke-width:0.5;" width="143" x="201.5" y="261"/><text fill="#000000" font-family="sans-serif" font-size="12" lengthAdjust="spacing" textLength="123" x="211.5" y="283.457">Output Transformation</text><rect fill="#F1F1F1" height="35.0938" rx="12.5" ry="12.5" style="stroke:#181818;stroke-width:0.5;" width="122" x="212" y="351"/><text fill="#000000" font-family="sans-serif" font-size="12" lengthAdjust="spacing" textLength="102" x="222" y="373.457">Output Disposition</text><ellipse cx="569" cy="458.5" fill="none" rx="10" ry="10" style="stroke:#222222;stroke-width:1.0;"/><ellipse cx="569.5" cy="459" fill="#222222" rx="6" ry="6" style="stroke:none;stroke-width:1.0;"/><rect fill="#F1F1F1" height="35.0938" rx="12.5" ry="12.5" style="stroke:#181818;stroke-width:0.5;" width="164" x="7" y="441"/><text fill="#000000" font-family="sans-serif" font-size="12" lengthAdjust="spacing" textLength="144" x="17" y="463.457">Child Output Disposition 1</text><rect fill="#F1F1F1" height="35.0938" rx="12.5" ry="12.5" style="stroke:#181818;stroke-width:0.5;" width="164" x="191" y="441"/><text fill="#000000" font-family="sans-serif" font-size="12" lengthAdjust="spacing" textLength="144" x="201" y="463.457">Child Output Disposition 2</text><rect fill="#F1F1F1" height="35.0938" rx="12.5" ry="12.5" style="stroke:#181818;stroke-width:0.5;" width="164" x="375" y="441"/><text fill="#000000" font-family="sans-serif" font-size="12" lengthAdjust="spacing" textLength="144" x="385" y="463.457">Child Output Disposition 3</text><!--MD5=[7a1111e0dafa816e3d9e1346a71649e1]
link start to Data Transformation--><g id="link_start_Data Transformation"><path d="M273,26.23 C273,38.18 273,59.38 273,75.56 " fill="none" id="start-to-Data Transformation" style="stroke:#181818;stroke-width:1.0;"/><polygon fill="#181818" points="273,80.84,277,71.84,273,75.84,269,71.84,273,80.84" style="stroke:#181818;stroke-width:1.0;"/><text fill="#000000" font-family="sans-serif" font-size="11" lengthAdjust="spacing" textLength="69" x="274" y="58.4189">Data Chunk(s)</text></g><!--MD5=[00f61f0c6ef013e0e4b7368a5ae84dcb]
link Data Transformation to Output Generation--><g id="link_Data Transformation_Output Generation"><path d="M273,116.05 C273,130.1 273,150.36 273,165.72 " fill="none" id="Data Transformation-to-Output Generation" style="stroke:#181818;stroke-width:1.0;"/><polygon fill="#181818" points="273,170.72,277,161.72,273,165.72,269,161.72,273,170.72" style="stroke:#181818;stroke-width:1.0;"/><text fill="#000000" font-family="sans-serif" font-size="11" lengthAdjust="spacing" textLength="69" x="274" y="148.4189">Data Chunk(s)</text></g><!--MD5=[dc47635884f6decca042944cde3614a6]
link Output Generation to Output Transformation--><g id="link_Output Generation_Output Transformation"><path d="M273,206.05 C273,220.1 273,240.36 273,255.72 " fill="none" id="Output Generation-to-Output Transformation" style="stroke:#181818;stroke-width:1.0;"/><polygon fill="#181818" points="273,260.72,277,251.72,273,255.72,269,251.72,273,260.72" style="stroke:#181818;stroke-width:1.0;"/><text fill="#000000" font-family="sans-serif" font-size="11" lengthAdjust="spacing" textLength="79" x="274" y="238.4189">Output Chunk(s)</text></g><!--MD5=[2e36d42590acfc58fad39e4eef7dcb5e]
link Output Transformation to Output Disposition--><g id="link_Output Transformation_Output Disposition"><path d="M273,296.05 C273,310.1 273,330.36 273,345.72 " fill="none" id="Output Transformation-to-Output Disposition" style="stroke:#181818;stroke-width:1.0;"/><polygon fill="#181818" points="273,350.72,277,341.72,273,345.72,269,341.72,273,350.72" style="stroke:#181818;stroke-width:1.0;"/><text fill="#000000" font-family="sans-serif" font-size="11" lengthAdjust="spacing" textLength="79" x="274" y="328.4189">Output Chunk(s)</text></g><!--MD5=[ab0b1a9c81d6626a89a29b9ad89938a3]
link Output Disposition to end--><g id="link_Output Disposition_end"><path d="M334.12,377.51 C391.93,386.86 479.88,405.75 549,441 C552.26,442.66 555.47,444.94 558.33,447.26 " fill="none" id="Output Disposition-to-end" style="stroke:#181818;stroke-width:1.0;"/><polygon fill="#181818" points="562.5,450.89,558.3057,441.9789,558.7168,447.6208,553.075,448.0319,562.5,450.89" style="stroke:#181818;stroke-width:1.0;"/><text fill="#000000" font-family="sans-serif" font-size="11" lengthAdjust="spacing" textLength="77" x="500" y="418.4189">Result Chunk(s)</text></g><!--MD5=[bfeb1e96e6a5bebf5a9f9d3c8b1c30f2]
link Output Disposition to Child Output Disposition 1--><g id="link_Output Disposition_Child Output Disposition 1"><path d="M232.38,386.05 C199.37,400.94 153.55,422.81 122.58,438.42 " fill="none" id="Output Disposition-to-Child Output Disposition 1" style="stroke:#181818;stroke-width:1.0;"/><polygon fill="#181818" points="117.74,440.87,127.575,440.3474,122.1949,438.5997,123.9426,433.2196,117.74,440.87" style="stroke:#181818;stroke-width:1.0;"/></g><!--MD5=[34d155d2245132bd0d47adabb1cade78]
link Child Output Disposition 1 to Output Disposition--><g id="link_Child Output Disposition 1_Output Disposition"><path d="M129.79,440.87 C162.84,425.96 208.65,404.09 239.57,388.5 " fill="none" id="Child Output Disposition 1-to-Output Disposition" style="stroke:#181818;stroke-width:1.0;"/><polygon fill="#181818" points="244.4,386.05,234.5637,386.5475,239.9394,388.3089,238.178,393.6846,244.4,386.05" style="stroke:#181818;stroke-width:1.0;"/></g><!--MD5=[b84b18d448ab8795b7e1339aede05b1c]
link Output Disposition to Child Output Disposition 2--><g id="link_Output Disposition_Child Output Disposition 2"><path d="M266.99,386.05 C265.21,400.1 265.03,420.36 266.42,435.72 " fill="none" id="Output Disposition-to-Child Output Disposition 2" style="stroke:#181818;stroke-width:1.0;"/><polygon fill="#181818" points="266.96,440.72,269.986,431.3475,266.4314,435.748,262.0309,432.1933,266.96,440.72" style="stroke:#181818;stroke-width:1.0;"/></g><!--MD5=[311449f5a3aae2b381b7dbc8a77f9663]
link Child Output Disposition 2 to Output Disposition--><g id="link_Child Output Disposition 2_Output Disposition"><path d="M279.04,440.72 C280.8,426.61 280.97,406.35 279.55,391.04 " fill="none" id="Child Output Disposition 2-to-Output Disposition" style="stroke:#181818;stroke-width:1.0;"/><polygon fill="#181818" points="279.01,386.05,276.0106,395.431,279.5528,391.0205,283.9633,394.5626,279.01,386.05" style="stroke:#181818;stroke-width:1.0;"/></g><!--MD5=[1c81716282155c1bc463eb9af2fa54d2]
link Output Disposition to Child Output Disposition 3--><g id="link_Output Disposition_Child Output Disposition 3"><path d="M301.6,386.05 C331.08,401.06 377.22,423.17 411.65,438.81 " fill="none" id="Output Disposition-to-Child Output Disposition 3" style="stroke:#181818;stroke-width:1.0;"/><polygon fill="#181818" points="416.21,440.87,409.6806,433.4966,411.6606,438.7956,406.3616,440.7756,416.21,440.87" style="stroke:#181818;stroke-width:1.0;"/></g><!--MD5=[086c93abe124675e5efcb3a2d62f3b31]
link Child Output Disposition 3 to Output Disposition--><g id="link_Child Output Disposition 3_Output Disposition"><path d="M428.26,440.87 C398.71,425.84 352.57,403.73 318.18,388.12 " fill="none" id="Child Output Disposition 3-to-Output Disposition" style="stroke:#181818;stroke-width:1.0;"/><polygon fill="#181818" points="313.62,386.05,320.1772,393.3987,318.1772,388.1072,323.4687,386.1071,313.62,386.05" style="stroke:#181818;stroke-width:1.0;"/></g><!--MD5=[cb0e10b64dd02113603d1628da225cd7]
@startuml DispositionOverview

(*) - ->[Data Chunk(s)] "Data Transformation"
- ->[Data Chunk(s)] "Output Generation"
- ->[Output Chunk(s)] "Output Transformation"
- ->[Output Chunk(s)] "Output Disposition"
"Output Disposition" -down->[Result Chunk(s)] (*)
"Output Disposition" -right-> "Child Output Disposition 1"
- -> "Output Disposition"
"Output Disposition" -right-> "Child Output Disposition 2"
- -> "Output Disposition"
"Output Disposition" -right-> "Child Output Disposition 3"
- -> "Output Disposition"

@enduml

PlantUML version 1.2022.13(Sat Nov 19 08:22:17 EST 2022)
(GPL source distribution)
Java Runtime: Java(TM) SE Runtime Environment
JVM: Java HotSpot(TM) 64-Bit Server VM
Default Encoding: Cp1252
Language: en
Country: CA
--></g></svg>