<?xml version="1.0" encoding="UTF-8" standalone="no"?><svg xmlns="http://www.w3.org/2000/svg" xmlns:xlink="http://www.w3.org/1999/xlink" contentStyleType="text/css" height="482px" preserveAspectRatio="none" style="width:420px;height:482px;background:#FFFFFF;" version="1.1" viewBox="0 0 420 482" width="420px" zoomAndPan="magnify"><defs/><g><ellipse cx="108" cy="16" fill="#222222" rx="10" ry="10" style="stroke:none;stroke-width:1.0;"/><rect fill="#F1F1F1" height="35.0938" rx="12.5" ry="12.5" style="stroke:#181818;stroke-width:0.5;" width="133" x="41.5" y="81"/><text fill="#000000" font-family="sans-serif" font-size="12" lengthAdjust="spacing" textLength="113" x="51.5" y="103.457">Data Transformation</text><rect fill="#F1F1F1" height="35.0938" rx="12.5" ry="12.5" style="stroke:#181818;stroke-width:0.5;" width="120" x="48" y="171"/><text fill="#000000" font-family="sans-serif" font-size="12" lengthAdjust="spacing" textLength="100" x="58" y="193.457">Output Generation</text><rect fill="#F1F1F1" height="35.0938" rx="12.5" ry="12.5" style="stroke:#181818;stroke-width:0.5;" width="202" x="7" y="261"/><text fill="#000000" font-family="sans-serif" font-size="12" lengthAdjust="spacing" textLength="182" x="17" y="283.457">Aggregate Output Transformation</text><rect fill="#F1F1F1" height="35.0938" rx="12.5" ry="12.5" style="stroke:#181818;stroke-width:0.5;" width="185" x="229.5" y="261"/><text fill="#000000" font-family="sans-serif" font-size="12" lengthAdjust="spacing" textLength="165" x="239.5" y="283.457">Child Output Transformation 1</text><rect fill="#F1F1F1" height="35.0938" rx="12.5" ry="12.5" style="stroke:#181818;stroke-width:0.5;" width="185" x="229.5" y="351"/><text fill="#000000" font-family="sans-serif" font-size="12" lengthAdjust="spacing" textLength="165" x="239.5" y="373.457">Child Output Transformation 2</text><rect fill="#F1F1F1" height="35.0938" rx="12.5" ry="12.5" style="stroke:#181818;stroke-width:0.5;" width="185" x="156.5" y="441"/><text fill="#000000" font-family="sans-serif" font-size="12" lengthAdjust="spacing" textLength="165" x="166.5" y="463.457">Child Output Transformation 3</text><rect fill="#F1F1F1" height="35.0938" rx="12.5" ry="12.5" style="stroke:#181818;stroke-width:0.5;" width="122" x="40" y="351"/><text fill="#000000" font-family="sans-serif" font-size="12" lengthAdjust="spacing" textLength="102" x="50" y="373.457">Output Disposition</text><ellipse cx="101" cy="458.5" fill="none" rx="10" ry="10" style="stroke:#222222;stroke-width:1.0;"/><ellipse cx="101.5" cy="459" fill="#222222" rx="6" ry="6" style="stroke:none;stroke-width:1.0;"/><!--MD5=[7a1111e0dafa816e3d9e1346a71649e1]
link start to Data Transformation--><g id="link_start_Data Transformation"><path d="M108,26.23 C108,38.18 108,59.38 108,75.56 " fill="none" id="start-to-Data Transformation" style="stroke:#181818;stroke-width:1.0;"/><polygon fill="#181818" points="108,80.84,112,71.84,108,75.84,104,71.84,108,80.84" style="stroke:#181818;stroke-width:1.0;"/><text fill="#000000" font-family="sans-serif" font-size="11" lengthAdjust="spacing" textLength="69" x="109" y="58.4189">Data Chunk(s)</text></g><!--MD5=[00f61f0c6ef013e0e4b7368a5ae84dcb]
link Data Transformation to Output Generation--><g id="link_Data Transformation_Output Generation"><path d="M108,116.05 C108,130.1 108,150.36 108,165.72 " fill="none" id="Data Transformation-to-Output Generation" style="stroke:#181818;stroke-width:1.0;"/><polygon fill="#181818" points="108,170.72,112,161.72,108,165.72,104,161.72,108,170.72" style="stroke:#181818;stroke-width:1.0;"/><text fill="#000000" font-family="sans-serif" font-size="11" lengthAdjust="spacing" textLength="69" x="109" y="148.4189">Data Chunk(s)</text></g><!--MD5=[4dfa280b78d2c89ed64356022bc5f01b]
link Output Generation to Aggregate Output Transformation--><g id="link_Output Generation_Aggregate Output Transformation"><path d="M108,206.05 C108,220.1 108,240.36 108,255.72 " fill="none" id="Output Generation-to-Aggregate Output Transformation" style="stroke:#181818;stroke-width:1.0;"/><polygon fill="#181818" points="108,260.72,112,251.72,108,255.72,104,251.72,108,260.72" style="stroke:#181818;stroke-width:1.0;"/><text fill="#000000" font-family="sans-serif" font-size="11" lengthAdjust="spacing" textLength="79" x="109" y="238.4189">Output Chunk(s)</text></g><!--MD5=[ba191fe083d6498830e8ee1b0f58ccbc]
link Aggregate Output Transformation to Child Output Transformation 1--><g id="link_Aggregate Output Transformation_Child Output Transformation 1"><path d="M209.15,278.5 C214.22,278.5 219.29,278.5 224.36,278.5 " fill="none" id="Aggregate Output Transformation-to-Child Output Transformation 1" style="stroke:#181818;stroke-width:1.0;"/><polygon fill="#181818" points="229.43,278.5,220.43,274.5,224.43,278.5,220.43,282.5,229.43,278.5" style="stroke:#181818;stroke-width:1.0;"/></g><!--MD5=[c168e847d2640205c11c46a3102b4f55]
link Child Output Transformation 1 to Child Output Transformation 2--><g id="link_Child Output Transformation 1_Child Output Transformation 2"><path d="M322,296.05 C322,310.1 322,330.36 322,345.72 " fill="none" id="Child Output Transformation 1-to-Child Output Transformation 2" style="stroke:#181818;stroke-width:1.0;"/><polygon fill="#181818" points="322,350.72,326,341.72,322,345.72,318,341.72,322,350.72" style="stroke:#181818;stroke-width:1.0;"/></g><!--MD5=[a012f9309b6c70777871e323d4d7588c]
link Child Output Transformation 2 to Child Output Transformation 3--><g id="link_Child Output Transformation 2_Child Output Transformation 3"><path d="M308.27,386.05 C296.42,400.34 279.23,421.06 266.41,436.51 " fill="none" id="Child Output Transformation 2-to-Child Output Transformation 3" style="stroke:#181818;stroke-width:1.0;"/><polygon fill="#181818" points="262.92,440.72,271.7354,436.328,266.104,436.8649,265.5672,431.2336,262.92,440.72" style="stroke:#181818;stroke-width:1.0;"/></g><!--MD5=[bc76698061f5d4f5e423e389a4ab4a22]
link Child Output Transformation 3 to Aggregate Output Transformation--><g id="link_Child Output Transformation 3_Aggregate Output Transformation"><path d="M241.93,440.74 C226.92,405.38 192.43,325.59 183,316 C176.23,309.12 167.9,303.35 159.29,298.57 " fill="none" id="Child Output Transformation 3-to-Aggregate Output Transformation" style="stroke:#181818;stroke-width:1.0;"/><polygon fill="#181818" points="154.48,296.02,160.5545,303.7725,158.8965,298.364,164.3049,296.7061,154.48,296.02" style="stroke:#181818;stroke-width:1.0;"/></g><!--MD5=[45572975cddf1b982398a0abc1b980c3]
link Aggregate Output Transformation to Output Disposition--><g id="link_Aggregate Output Transformation_Output Disposition"><path d="M104.12,296.12 C102.86,302.32 101.62,309.45 101,316 C100.08,325.67 99.94,336.41 100.09,345.57 " fill="none" id="Aggregate Output Transformation-to-Output Disposition" style="stroke:#181818;stroke-width:1.0;"/><polygon fill="#181818" points="100.2,350.76,104.0192,341.6818,100.1,345.761,96.0208,341.8418,100.2,350.76" style="stroke:#181818;stroke-width:1.0;"/><text fill="#000000" font-family="sans-serif" font-size="11" lengthAdjust="spacing" textLength="79" x="102" y="328.4189">Output Chunk(s)</text></g><!--MD5=[ab0b1a9c81d6626a89a29b9ad89938a3]
link Output Disposition to end--><g id="link_Output Disposition_end"><path d="M101,386.05 C101,402.37 101,427.07 101,442.74 " fill="none" id="Output Disposition-to-end" style="stroke:#181818;stroke-width:1.0;"/><polygon fill="#181818" points="101,448.07,105,439.07,101,443.07,97,439.07,101,448.07" style="stroke:#181818;stroke-width:1.0;"/><text fill="#000000" font-family="sans-serif" font-size="11" lengthAdjust="spacing" textLength="77" x="102" y="418.4189">Result Chunk(s)</text></g><!--MD5=[e931308914a942a1e529c415396fc14a]
@startuml OutputOverview

(*) - ->[Data Chunk(s)] "Data Transformation"
- ->[Data Chunk(s)] "Output Generation"
- ->[Output Chunk(s)] "Aggregate Output Transformation"
-right-> "Child Output Transformation 1"
- -> "Child Output Transformation 2"
- -> "Child Output Transformation 3"
- -> "Aggregate Output Transformation"
- ->[Output Chunk(s)] "Output Disposition"
- ->[Result Chunk(s)] (*)

@enduml

PlantUML version 1.2022.13(Sat Nov 19 08:22:17 EST 2022)
(GPL source distribution)
Java Runtime: Java(TM) SE Runtime Environment
JVM: Java HotSpot(TM) 64-Bit Server VM
Default Encoding: Cp1252
Language: en
Country: CA
--></g></svg>