<?xml version="1.0" encoding="UTF-8" standalone="no"?><svg xmlns="http://www.w3.org/2000/svg" xmlns:xlink="http://www.w3.org/1999/xlink" contentStyleType="text/css" height="467px" preserveAspectRatio="none" style="width:166px;height:467px;background:#FFFFFF;" version="1.1" viewBox="0 0 166 467" width="166px" zoomAndPan="magnify"><defs/><g><ellipse cx="78.5" cy="16" fill="#222222" rx="10" ry="10" style="stroke:none;stroke-width:1.0;"/><rect fill="#F1F1F1" height="35.0938" rx="12.5" ry="12.5" style="stroke:#181818;stroke-width:0.5;" width="133" x="12" y="81"/><text fill="#000000" font-family="sans-serif" font-size="12" lengthAdjust="spacing" textLength="113" x="22" y="103.457">Data Transformation</text><rect fill="#F1F1F1" height="35.0938" rx="12.5" ry="12.5" style="stroke:#181818;stroke-width:0.5;" width="120" x="18.5" y="171"/><text fill="#000000" font-family="sans-serif" font-size="12" lengthAdjust="spacing" textLength="100" x="28.5" y="193.457">Output Generation</text><rect fill="#F1F1F1" height="35.0938" rx="12.5" ry="12.5" style="stroke:#181818;stroke-width:0.5;" width="143" x="7" y="261"/><text fill="#000000" font-family="sans-serif" font-size="12" lengthAdjust="spacing" textLength="123" x="17" y="283.457">Output Transformation</text><rect fill="#F1F1F1" height="35.0938" rx="12.5" ry="12.5" style="stroke:#181818;stroke-width:0.5;" width="122" x="17.5" y="351"/><text fill="#000000" font-family="sans-serif" font-size="12" lengthAdjust="spacing" textLength="102" x="27.5" y="373.457">Output Disposition</text><ellipse cx="78.5" cy="451" fill="none" rx="10" ry="10" style="stroke:#222222;stroke-width:1.0;"/><ellipse cx="79" cy="451.5" fill="#222222" rx="6" ry="6" style="stroke:none;stroke-width:1.0;"/><!--MD5=[7a1111e0dafa816e3d9e1346a71649e1]
link start to Data Transformation--><g id="link_start_Data Transformation"><path d="M78.5,26.23 C78.5,38.18 78.5,59.38 78.5,75.56 " fill="none" id="start-to-Data Transformation" style="stroke:#181818;stroke-width:1.0;"/><polygon fill="#181818" points="78.5,80.84,82.5,71.84,78.5,75.84,74.5,71.84,78.5,80.84" style="stroke:#181818;stroke-width:1.0;"/><text fill="#000000" font-family="sans-serif" font-size="11" lengthAdjust="spacing" textLength="69" x="79.5" y="58.4189">Data Chunk(s)</text></g><!--MD5=[00f61f0c6ef013e0e4b7368a5ae84dcb]
link Data Transformation to Output Generation--><g id="link_Data Transformation_Output Generation"><path d="M78.5,116.05 C78.5,130.1 78.5,150.36 78.5,165.72 " fill="none" id="Data Transformation-to-Output Generation" style="stroke:#181818;stroke-width:1.0;"/><polygon fill="#181818" points="78.5,170.72,82.5,161.72,78.5,165.72,74.5,161.72,78.5,170.72" style="stroke:#181818;stroke-width:1.0;"/><text fill="#000000" font-family="sans-serif" font-size="11" lengthAdjust="spacing" textLength="69" x="79.5" y="148.4189">Data Chunk(s)</text></g><!--MD5=[dc47635884f6decca042944cde3614a6]
link Output Generation to Output Transformation--><g id="link_Output Generation_Output Transformation"><path d="M78.5,206.05 C78.5,220.1 78.5,240.36 78.5,255.72 " fill="none" id="Output Generation-to-Output Transformation" style="stroke:#181818;stroke-width:1.0;"/><polygon fill="#181818" points="78.5,260.72,82.5,251.72,78.5,255.72,74.5,251.72,78.5,260.72" style="stroke:#181818;stroke-width:1.0;"/><text fill="#000000" font-family="sans-serif" font-size="11" lengthAdjust="spacing" textLength="79" x="79.5" y="238.4189">Output Chunk(s)</text></g><!--MD5=[2e36d42590acfc58fad39e4eef7dcb5e]
link Output Transformation to Output Disposition--><g id="link_Output Transformation_Output Disposition"><path d="M78.5,296.05 C78.5,310.1 78.5,330.36 78.5,345.72 " fill="none" id="Output Transformation-to-Output Disposition" style="stroke:#181818;stroke-width:1.0;"/><polygon fill="#181818" points="78.5,350.72,82.5,341.72,78.5,345.72,74.5,341.72,78.5,350.72" style="stroke:#181818;stroke-width:1.0;"/><text fill="#000000" font-family="sans-serif" font-size="11" lengthAdjust="spacing" textLength="79" x="79.5" y="328.4189">Output Chunk(s)</text></g><!--MD5=[ab0b1a9c81d6626a89a29b9ad89938a3]
link Output Disposition to end--><g id="link_Output Disposition_end"><path d="M78.5,386.18 C78.5,400.82 78.5,421.87 78.5,435.74 " fill="none" id="Output Disposition-to-end" style="stroke:#181818;stroke-width:1.0;"/><polygon fill="#181818" points="78.5,440.85,82.5,431.85,78.5,435.85,74.5,431.85,78.5,440.85" style="stroke:#181818;stroke-width:1.0;"/><text fill="#000000" font-family="sans-serif" font-size="11" lengthAdjust="spacing" textLength="77" x="79.5" y="418.4189">Result Chunk(s)</text></g><!--MD5=[7fd288c45d533193c54bd839e6e599a4]
@startuml SimpleOverview

(*) - ->[Data Chunk(s)] "Data Transformation"
- ->[Data Chunk(s)] "Output Generation"
- ->[Output Chunk(s)] "Output Transformation"
- ->[Output Chunk(s)] "Output Disposition"
- ->[Result Chunk(s)] (*)

@enduml

PlantUML version 1.2022.13(Sat Nov 19 08:22:17 EST 2022)
(GPL source distribution)
Java Runtime: Java(TM) SE Runtime Environment
JVM: Java HotSpot(TM) 64-Bit Server VM
Default Encoding: Cp1252
Language: en
Country: CA
--></g></svg>